<?xml version="1.0" encoding="UTF-8" standalone="no"?>
<!-- Created with Inkscape (http://www.inkscape.org/) -->

<svg
   xmlns:osb="http://www.openswatchbook.org/uri/2009/osb"
   xmlns:dc="http://purl.org/dc/elements/1.1/"
   xmlns:cc="http://creativecommons.org/ns#"
   xmlns:rdf="http://www.w3.org/1999/02/22-rdf-syntax-ns#"
   xmlns:svg="http://www.w3.org/2000/svg"
   xmlns="http://www.w3.org/2000/svg"
   xmlns:sodipodi="http://sodipodi.sourceforge.net/DTD/sodipodi-0.dtd"
   xmlns:inkscape="http://www.inkscape.org/namespaces/inkscape"
   sodipodi:docname="COGS-Controller-Logo-Final.svg"
   inkscape:version="0.48.5 r10040"
   version="1.1"
   id="svg2"
   height="270"
   width="450"
   inkscape:export-filename="C:\Users\Shahan\Desktop\COGS-logo\COGS-Controller-Logo-4-Final-1.png"
   inkscape:export-xdpi="300"
   inkscape:export-ydpi="300">
  <sodipodi:namedview
     id="base"
     pagecolor="#ffffff"
     bordercolor="#666666"
     borderopacity="1.0"
     inkscape:pageopacity="1"
     inkscape:pageshadow="2"
     inkscape:zoom="1.2053853"
     inkscape:cx="109.26574"
     inkscape:cy="156.04167"
     inkscape:document-units="px"
     inkscape:current-layer="layer1"
     showgrid="false"
     showguides="true"
     inkscape:window-width="1360"
     inkscape:window-height="720"
     inkscape:window-x="-4"
     inkscape:window-y="-4"
     inkscape:window-maximized="1"
     fit-margin-top="0"
     fit-margin-left="0"
     fit-margin-right="0"
     fit-margin-bottom="0"
     units="in">
    <inkscape:grid
       type="xygrid"
       id="grid3779"
       empspacing="5"
       visible="true"
       enabled="true"
       snapvisiblegridlinesonly="true"
       originx="-93.351578px"
       originy="-499.77608px" />
  </sodipodi:namedview>
  <defs
     id="defs4">
    <linearGradient
       id="linearGradient3773"
       osb:paint="solid">
      <stop
         style="stop-color:#ff0000;stop-opacity:1;"
         offset="0"
         id="stop3775" />
    </linearGradient>
  </defs>
  <metadata
     id="metadata7">
    <rdf:RDF>
      <cc:Work
         rdf:about="">
        <dc:format>image/svg+xml</dc:format>
        <dc:type
           rdf:resource="http://purl.org/dc/dcmitype/StillImage" />
        <dc:title></dc:title>
      </cc:Work>
    </rdf:RDF>
  </metadata>
  <g
     inkscape:label="Layer 1"
     inkscape:groupmode="layer"
     id="layer1"
     transform="translate(-93.351578,-282.58646)">
    <rect
       style="fill:#000000;fill-opacity:1;stroke:none"
       id="rect3829"
       width="450"
       height="270"
       x="93.351578"
       y="282.58646" />
    <flowRoot
       xml:space="preserve"
       id="flowRoot2985"
       style="font-size:40px;font-style:normal;font-variant:normal;font-weight:normal;font-stretch:normal;line-height:125%;letter-spacing:0px;word-spacing:0px;fill:#000000;fill-opacity:1;stroke:none;font-family:Nes Controller;-inkscape-font-specification:Nes Controller"><flowRegion
         id="flowRegion2987"><rect
           id="rect2989"
           width="317.14285"
           height="331.42856"
           x="111.42857"
           y="166.6479"
           style="font-style:normal;font-variant:normal;font-weight:normal;font-stretch:normal;font-family:Nes Controller;-inkscape-font-specification:Nes Controller" /></flowRegion><flowPara
         id="flowPara2991" /></flowRoot>    <rect
       style="fill:none;stroke:#ffffff;stroke-width:4.53876495;stroke-linecap:butt;stroke-linejoin:miter;stroke-miterlimit:4;stroke-opacity:1;stroke-dasharray:none"
       id="rect3003"
       width="433.021"
       height="184.47322"
       x="101.84109"
       y="357.69843" />
    <path
       style="fill:none;stroke:#ffffff;stroke-width:4.47963381;stroke-linejoin:round;stroke-miterlimit:4;stroke-opacity:1;stroke-dasharray:none"
       d="m 161.45239,408.03642 0,24.86197 -24.86197,0 0,34.07321 24.86197,0 0,24.86197 34.07321,0 0,-24.86197 24.86197,0 0,-34.07321 -24.86197,0 0,-24.86197 -34.07321,0 z"
       id="rect3781"
       inkscape:connector-curvature="0" />
    <g
       id="g3931"
       transform="matrix(0.79621831,0,0,0.79621831,61.789023,126.59423)">
      <rect
         y="490.09735"
         x="340.60788"
         height="1.6863681"
         width="26.447979"
         id="rect3842"
         style="fill:#ffffff;fill-opacity:1;stroke:#ffffff;stroke-width:12;stroke-linejoin:round;stroke-miterlimit:4;stroke-opacity:1;stroke-dasharray:none" />
      <rect
         y="490.09735"
         x="277.39691"
         height="1.6863681"
         width="26.447979"
         id="rect3842-4"
         style="fill:#ffffff;fill-opacity:1;stroke:#ffffff;stroke-width:12;stroke-linejoin:round;stroke-miterlimit:4;stroke-opacity:1;stroke-dasharray:none" />
    </g>
    <g
       id="g4807"
       transform="matrix(0.89592675,0,0,0.89592675,22.835722,67.967087)"
       style="fill:#c00f30;fill-opacity:1">
      <path
         inkscape:connector-curvature="0"
         id="path4731"
         d="m 521.20239,442.94455 c -1.20697,-2.02432 -2.25615,-3.28289 -2.94276,-3.53007 -0.58687,-0.21125 -4.12845,-0.81582 -7.8702,-1.34349 l -6.80315,-0.95939 -2.6665,2.37863 c -1.46656,1.30826 -2.91703,2.37949 -3.22324,2.38053 -0.6339,0.003 -6.81893,-4.65277 -6.81893,-5.13199 0,-0.41271 1.62288,-4.93899 2.18752,-6.10108 0.37597,-0.77379 -0.0806,-1.82859 -3.06911,-7.09104 -3.85687,-6.79147 -3.54711,-6.51359 -9.31555,-8.35651 l -2.82144,-0.9014 -0.27037,-2.53991 c -0.14871,-1.39694 -0.20667,-3.20371 -0.12882,-4.01503 0.13615,-1.41887 0.26919,-1.52535 3.48715,-2.79138 1.84008,-0.72394 3.67532,-1.72347 4.07835,-2.22116 0.403,-0.4977 1.78881,-3.59867 3.07958,-6.89105 l 2.34685,-5.98614 -1.73548,-3.50336 c -1.70018,-3.4321 -1.71995,-3.52235 -0.97145,-4.43673 1.33087,-1.62582 4.57822,-4.50413 5.37348,-4.76284 0.49895,-0.16231 1.76942,0.42447 3.64799,1.68486 1.58533,1.06364 3.16453,1.93389 3.50935,1.93389 0.75724,0 9.86355,-2.73249 12.51585,-3.75557 1.83448,-0.70762 1.9356,-0.84262 3.2078,-4.28271 1.25612,-3.39663 1.3669,-3.54766 2.53122,-3.45119 3.12019,0.25854 7.5702,1.1367 7.84926,1.54897 0.17031,0.25162 0.31255,1.89111 0.3161,3.6433 0.004,1.91733 0.21622,3.44052 0.53328,3.82551 0.52437,0.63669 3.25508,2.72217 4.61609,3.52536 1.11554,0.65832 4.17539,2.79569 5.97596,4.17434 l 1.63586,1.25252 1.94661,-0.69046 c 3.32767,-1.18033 5.44021,-1.365 6.33642,-0.55394 0.90609,0.81999 3.53788,5.98125 3.33357,6.53755 -0.0753,0.20512 -1.25034,1.55519 -2.61115,3.00013 l -2.47418,2.62718 0.29979,5.52403 c 0.42351,7.80378 0.71028,9.05809 2.39942,10.49516 0.77342,0.65801 2.11057,1.80867 2.97147,2.55703 l 1.56524,1.36065 -0.57144,1.87761 c -0.31428,1.03268 -0.89699,2.68366 -1.2949,3.66883 l -0.72347,1.79124 -4.06356,0.0296 c -2.23494,0.0163 -4.38507,0.15854 -4.77808,0.3161 -0.393,0.15757 -2.89925,2.33557 -5.56945,4.84001 l -4.85492,4.55352 -0.12035,4.0336 -0.12035,4.03358 -3.16101,1.15583 c -1.73855,0.63572 -3.54971,1.27665 -4.02482,1.42432 -0.72849,0.22643 -1.15761,-0.22429 -2.73953,-2.87746 l 0,-10e-6 z M 521.434,428.2334 c 10.58906,-2.83281 17.01188,-13.57105 14.92503,-24.95297 -1.06802,-5.82515 -5.99064,-11.95503 -11.97847,-14.91614 -2.59932,-1.28542 -3.41873,-1.47696 -6.95319,-1.6254 -3.47561,-0.14595 -4.44019,-0.0227 -7.27812,0.92995 -7.10585,2.38536 -11.50186,6.72115 -13.85248,13.66269 -1.36709,4.03708 -1.31887,9.76638 0.11422,13.57357 1.46727,3.89797 3.77477,7.16078 6.58321,9.30865 3.40557,2.60455 4.96775,3.30665 8.78198,3.94699 4.40052,0.73875 7.09227,0.759 9.65782,0.0726 l 0,0 z"
         style="fill:#c00f30;fill-opacity:1;stroke:none" />
      <path
         inkscape:connector-curvature="0"
         id="path4731-9"
         d="m 456.69813,480.49656 c -1.20697,-2.02432 -2.25616,-3.28289 -2.94277,-3.53007 -0.58686,-0.21125 -4.12844,-0.81582 -7.87019,-1.34349 l -6.80316,-0.95939 -2.66649,2.37864 c -1.46657,1.30825 -2.91704,2.37948 -3.22324,2.38052 -0.6339,0.003 -6.81893,-4.65277 -6.81893,-5.13199 0,-0.41271 1.62288,-4.93899 2.18752,-6.10107 0.37596,-0.7738 -0.0806,-1.82859 -3.06911,-7.09104 -3.85687,-6.79148 -3.54711,-6.5136 -9.31555,-8.35652 l -2.82145,-0.9014 -0.27037,-2.53991 c -0.1487,-1.39694 -0.20667,-3.20371 -0.12881,-4.01503 0.13615,-1.41887 0.26918,-1.52535 3.48714,-2.79138 1.84008,-0.72394 3.67533,-1.72347 4.07835,-2.22116 0.40301,-0.4977 1.78882,-3.59867 3.07959,-6.89105 l 2.34684,-5.98613 -1.73548,-3.50337 c -1.70017,-3.4321 -1.71994,-3.52235 -0.97145,-4.43672 1.33088,-1.62583 4.57822,-4.50414 5.37349,-4.76285 0.49895,-0.16231 1.76941,0.42447 3.64799,1.68486 1.58533,1.06364 3.16453,1.93389 3.50935,1.93389 0.75724,0 9.86355,-2.73248 12.51584,-3.75556 1.83448,-0.70763 1.9356,-0.84263 3.20781,-4.28272 1.25611,-3.39662 1.36689,-3.54766 2.53121,-3.45118 3.1202,0.25853 7.57021,1.13669 7.84926,1.54896 0.17031,0.25162 0.31255,1.89111 0.3161,3.6433 0.004,1.91733 0.21623,3.44052 0.53329,3.82551 0.52437,0.63669 3.25507,2.72217 4.61609,3.52536 1.11554,0.65833 4.17539,2.79569 5.97596,4.17434 l 1.63585,1.25253 1.94662,-0.69047 c 3.32766,-1.18032 5.44021,-1.365 6.33642,-0.55394 0.90609,0.81999 3.53788,5.98126 3.33357,6.53755 -0.0753,0.20513 -1.25035,1.55519 -2.61115,3.00013 l -2.47418,2.62718 0.29979,5.52403 c 0.42351,7.80378 0.71028,9.05809 2.39942,10.49516 0.77341,0.65802 2.11057,1.80867 2.97147,2.55703 l 1.56524,1.36066 -0.57144,1.8776 c -0.31429,1.03268 -0.89699,2.68366 -1.29491,3.66883 l -0.72347,1.79124 -4.06355,0.0296 c -2.23495,0.0163 -4.38508,0.15854 -4.77808,0.31611 -0.393,0.15756 -2.89925,2.33556 -5.56946,4.84 l -4.85491,4.55352 -0.12035,4.0336 -0.12036,4.03358 -3.161,1.15583 c -1.73855,0.63572 -3.54971,1.27665 -4.02482,1.42432 -0.72849,0.22643 -1.15761,-0.22429 -2.73953,-2.87746 l 0,-10e-6 z m 0.2316,-14.71115 c 10.58906,-2.83281 17.01188,-13.57105 14.92504,-24.95296 -1.06802,-5.82516 -5.99065,-11.95503 -11.97847,-14.91615 -2.59933,-1.28542 -3.41873,-1.47696 -6.95319,-1.6254 -3.47561,-0.14595 -4.4402,-0.0227 -7.27812,0.92995 -7.10586,2.38537 -11.50186,6.72115 -13.85249,13.66269 -1.36708,4.03708 -1.31887,9.76639 0.11422,13.57357 1.46727,3.89797 3.77477,7.16078 6.58321,9.30865 3.40558,2.60455 4.96775,3.30665 8.78199,3.94699 4.40052,0.73875 7.09227,0.759 9.65781,0.0726 l 0,0 z"
         style="fill:#c00f30;fill-opacity:1;stroke:none" />
    </g>
    <flowRoot
       xml:space="preserve"
       id="flowRoot4759"
       style="font-size:40px;font-style:normal;font-variant:normal;font-weight:normal;font-stretch:normal;line-height:125%;letter-spacing:0px;word-spacing:0px;fill:#d21034;fill-opacity:1;stroke:none;font-family:Nes Controller;-inkscape-font-specification:Nes Controller"
       transform="matrix(3.8182797,0,0,3.2339008,-166.54011,-298.63042)"><flowRegion
         id="flowRegion4761"><rect
           id="rect4763"
           width="338"
           height="77"
           x="85"
           y="166.46637"
           style="font-style:normal;font-variant:normal;font-weight:normal;font-stretch:normal;fill:#d21034;fill-opacity:1;font-family:Nes Controller;-inkscape-font-specification:Nes Controller" /></flowRegion><flowPara
         id="flowPara4765">COgs</flowPara></flowRoot>  </g>
</svg>
